# xmcd CD database file
#
# Track frame offsets:
#	150
#	5260
#	87485
#	121400
#	174086
#
# Disc length: 3952 seconds
#
# Revision: 0
# Processed by: cddbd v1.5.2PL0 Copyright (c) Steve Scherf et al.
# Submitted via: CDex 1.70beta2
#
DISCID=2f0f6e05
DTITLE=Kasmic Renaissanse - Live In Tokyo
DYEAR=1900
DGENRE=Jazz
TTITLE0=Intro
TTITLE1=Funk from an Known Planet
TTITLE2=Nebura
TTITLE3=Kosmic Truth
TTITLE4=Sunrise Over Venus
EXTD=
EXTT0=
EXTT1=
EXTT2=
EXTT3=
EXTT4=
PLAYORDER=
